<svg width="134" height="32" viewBox="0 0 134 32" fill="none" xmlns="http://www.w3.org/2000/svg">
<g clip-path="url(#clip0_152_10)">
<path d="M43.4218 0.280716C42.8648 0.281468 42.3308 0.498959 41.9365 0.885656C41.5421 1.27235 41.3194 1.79682 41.3171 2.34445V12.8493C39.3833 11.4004 37.0081 10.637 34.5774 10.6829C32.1466 10.7289 29.803 11.5816 27.9273 13.1025C26.0516 14.6234 24.7539 16.7232 24.2451 19.0608C23.7362 21.3984 24.0461 23.8365 25.1243 25.9791C26.2026 28.1216 27.9858 29.8428 30.1845 30.8631C32.3832 31.8834 34.8681 32.1428 37.2356 31.5992C39.6032 31.0556 41.7142 29.7409 43.2259 27.8686C44.7377 25.9964 45.5612 23.6766 45.5629 21.2861V2.34445C45.5612 2.0704 45.5043 1.7994 45.3956 1.54706C45.2869 1.29472 45.1284 1.06604 44.9294 0.874192C44.7304 0.682349 44.4947 0.531138 44.2359 0.42928C43.9772 0.327423 43.7005 0.276931 43.4218 0.280716ZM41.3171 21.2861C41.3113 22.9786 40.6227 24.5998 39.4025 25.7936C38.1822 26.9874 36.53 27.6563 34.8087 27.6534C33.0873 27.6506 31.4375 26.9762 30.2213 25.7784C29.0051 24.5806 28.3221 22.9572 28.3221 21.2646C28.3221 19.572 29.0051 17.9486 30.2213 16.7508C31.4375 15.553 33.0873 14.8786 34.8087 14.8758C36.53 14.8729 38.1822 15.5418 39.4025 16.7356C40.6227 17.9294 41.3113 19.5506 41.3171 21.2431V21.2861Z" fill="#375BDA"/>
<path d="M63.9617 10.9875C63.7 10.8879 63.4207 10.8406 63.1402 10.8484C62.8597 10.8561 62.5836 10.9187 62.3279 11.0326C62.0723 11.1465 61.8423 11.3093 61.6515 11.5115C61.4606 11.7138 61.3126 11.9514 61.2161 12.2105L56.7577 23.98L52.2527 12.2105C52.1539 11.9531 52.0045 11.7173 51.813 11.5166C51.6216 11.3159 51.3918 11.1542 51.1367 11.0408C50.8817 10.9275 50.6065 10.8646 50.3268 10.8558C50.047 10.847 49.7683 10.8925 49.5064 10.9896C49.2446 11.0868 49.0048 11.2337 48.8006 11.422C48.5965 11.6102 48.4321 11.8362 48.3168 12.0869C48.2015 12.3377 48.1376 12.6083 48.1286 12.8834C48.1197 13.1584 48.166 13.4325 48.2648 13.69L54.6982 30.5621C54.8527 30.9661 55.1273 31.315 55.4864 31.5633C55.8454 31.8116 56.2722 31.9478 56.7111 31.9542H56.7577C57.1958 31.9437 57.6209 31.8059 57.9794 31.5582C58.3379 31.3104 58.6137 30.9638 58.7721 30.5621L65.2056 13.6943C65.3103 13.4367 65.361 13.1611 65.3548 12.8838C65.3486 12.6065 65.2855 12.3334 65.1694 12.0806C65.0533 11.8279 64.8864 11.6008 64.6789 11.413C64.4714 11.2251 64.2274 11.0804 63.9617 10.9875Z" fill="#375BDA"/>
<path d="M70.1344 10.8285C69.8557 10.8246 69.5789 10.8749 69.3201 10.9765C69.0613 11.0782 68.8255 11.2293 68.6263 11.421C68.4272 11.6127 68.2686 11.8413 68.1597 12.0935C68.0508 12.3458 67.9937 12.6168 67.9918 12.8908V29.8919C67.9918 30.4463 68.2158 30.9779 68.6145 31.3699C69.0131 31.7619 69.5538 31.9821 70.1176 31.9821C70.6814 31.9821 71.2221 31.7619 71.6208 31.3699C72.0194 30.9779 72.2434 30.4463 72.2434 29.8919V12.8908C72.2411 12.3426 72.0178 11.8176 71.6224 11.431C71.2271 11.0444 70.6919 10.8278 70.1344 10.8285Z" fill="#375BDA"/>
<path d="M93.8553 24.2363C93.3743 23.9459 92.7977 23.8497 92.2463 23.968C91.6948 24.0862 91.2113 24.4098 90.897 24.8707C90.3106 25.7787 89.4995 26.5255 88.5397 27.0415C87.5799 27.5574 86.5027 27.8256 85.4089 27.821C81.8477 27.821 78.8837 24.9137 78.8837 21.4121C78.8867 20.0003 79.3628 18.6289 80.2381 17.5098C81.1135 16.3908 82.3395 15.5865 83.7264 15.2213C85.1133 14.8561 86.584 14.9504 87.911 15.4895C89.2379 16.0287 90.3473 16.9827 91.0675 18.2041C91.3625 18.6725 91.8286 19.0122 92.3703 19.1536C92.9119 19.295 93.488 19.2274 93.9805 18.9646C94.4646 18.6812 94.8163 18.2225 94.9601 17.6869C95.1039 17.1513 95.0283 16.5816 94.7496 16.1003C93.5617 14.0859 91.7313 12.513 89.5421 11.6251C87.3529 10.7373 84.927 10.5841 82.6403 11.1894C80.3536 11.7946 78.3337 13.1244 76.8935 14.9728C75.4534 16.8212 74.6733 19.085 74.6743 21.4135C74.6743 27.2352 79.4808 32.0014 85.4016 32.0014C87.2034 32.008 88.9778 31.5668 90.5598 30.7188C92.1419 29.8708 93.4803 28.6434 94.451 27.1507C94.7638 26.6862 94.8767 26.1188 94.7651 25.5726C94.6534 25.0264 94.3263 24.5459 93.8553 24.2363Z" fill="#375BDA"/>
<path d="M107.748 10.7812C104.913 10.8137 102.206 11.9435 100.213 13.9257C98.2208 15.908 97.1033 18.5827 97.1033 21.3699C97.1033 24.157 98.2208 26.8318 100.213 28.814C102.206 30.7962 104.913 31.9261 107.748 31.9585C109.338 31.9585 111.535 32 114.357 30.1425C115.345 29.5124 115.9 28.4139 115.387 27.3598C114.87 26.3459 113.54 25.7587 112.553 26.3888C111.131 27.3214 109.455 27.8064 107.746 27.7795C106.385 27.7778 105.058 27.3585 103.951 26.5801C102.844 25.8017 102.011 24.703 101.569 23.4372H116.376C116.655 23.4406 116.932 23.3897 117.191 23.2874C117.45 23.1852 117.686 23.0336 117.885 22.8414C118.084 22.6492 118.242 22.4202 118.351 22.1675C118.46 21.9148 118.517 21.6435 118.519 21.3691C118.517 14.492 112.942 10.7812 107.748 10.7812ZM101.57 19.2596C102.022 18.0035 102.859 16.9159 103.965 16.1464C105.071 15.377 106.393 14.9636 107.748 14.9631C110.326 14.9631 113.071 16.3137 113.968 19.2596H101.57Z" fill="#375BDA"/>
<path d="M131.854 10.8228C128.999 10.8251 126.261 11.9414 124.242 13.9268C122.223 15.9122 121.087 18.6043 121.085 21.4121V29.8919C121.085 30.4461 121.309 30.9775 121.707 31.3694C122.106 31.7612 122.646 31.9814 123.21 31.9814C123.774 31.9814 124.314 31.7612 124.713 31.3694C125.111 30.9775 125.335 30.4461 125.335 29.8919V21.4135C125.334 20.571 125.501 19.7365 125.828 18.9578C126.155 18.179 126.635 17.4714 127.241 16.8754C127.846 16.2794 128.566 15.8067 129.357 15.4845C130.149 15.1622 130.998 14.9967 131.854 14.9975C132.422 14.9956 132.967 14.7732 133.368 14.3786C133.77 13.984 133.997 13.4492 134 12.8908C133.998 12.6162 133.941 12.3448 133.832 12.092C133.723 11.8392 133.564 11.6101 133.365 11.4179C133.165 11.2257 132.929 11.0742 132.67 10.9721C132.411 10.8699 132.134 10.8192 131.854 10.8228Z" fill="#375BDA"/>
<path d="M70.1141 0L71.1467 3.12209H74.4865L71.7847 5.05263L72.8159 8.17615L70.1141 6.24561L67.4137 8.17615L68.4449 5.05263L65.743 3.12209H69.0828L70.1141 0Z" fill="#375BDA"/>
<path d="M21.4371 21.3878C21.4365 19.3035 20.8074 17.2662 19.6294 15.5334C18.4513 13.8007 16.7772 12.4503 14.8187 11.653C12.8602 10.8557 10.7052 10.6473 8.62622 11.0542C6.54725 11.461 4.63766 12.4649 3.13888 13.9388C1.6401 15.4127 0.619429 17.2905 0.205923 19.3347C-0.207583 21.3789 0.00464261 23.4978 0.815766 25.4235C1.62689 27.3491 3.00049 28.995 4.76289 30.1532C6.52529 31.3113 8.59735 31.9295 10.7171 31.9298C12.4823 31.9352 14.2206 31.5048 15.7727 30.6781V30.6881C15.7727 30.6881 20.9958 31.5933 21.0861 31.5933C21.1764 31.5933 20.151 26.3974 20.151 26.3974C20.9986 24.8594 21.4408 23.1371 21.4371 21.3878ZM10.669 27.7093C9.61205 27.71 8.57129 27.4537 7.63946 26.9631C7.63946 26.9631 6.85585 27.0977 6.06787 27.2281C5.27989 27.3584 4.48173 27.5145 4.45405 27.5145C4.39725 27.5145 5.01335 24.3953 5.01335 24.3953C4.34467 23.1771 4.10104 21.7768 4.31983 20.4094C4.53863 19.0419 5.20777 17.7829 6.22455 16.8254C7.24133 15.868 8.54955 15.2651 9.94844 15.1093C11.3473 14.9535 12.7596 15.2534 13.9684 15.9629C15.1772 16.6724 16.1158 17.7524 16.6401 19.0371C17.1645 20.3218 17.2456 21.7402 16.8709 23.0746C16.4963 24.4089 15.6867 25.5855 14.5664 26.4238C13.446 27.2621 12.0769 27.7157 10.669 27.715V27.7093Z" fill="#375BDA"/>
</g>
<defs>
<clipPath id="clip0_152_10">
<rect width="134" height="32" fill="white"/>
</clipPath>
</defs>
</svg>
